<?xml version="1.0" encoding="UTF-8"?>
<svg width="203px" height="230px" viewBox="0 0 203 230" version="1.1" xmlns="http://www.w3.org/2000/svg" xmlns:xlink="http://www.w3.org/1999/xlink">
    <title>Group 3</title>
    <defs>
        <filter id="filter-1">
            <feColorMatrix in="SourceGraphic" type="matrix" values="0 0 0 0 1.000000 0 0 0 0 1.000000 0 0 0 0 1.000000 0 0 0 1.000000 0"></feColorMatrix>
        </filter>
    </defs>
    <g id="Page-1" stroke="none" stroke-width="1" fill="none" fill-rule="evenodd">
        <g id="Desktop-Copy" transform="translate(-411.000000, -197.000000)">
            <g id="Group-3" transform="translate(411.000000, 197.000000)">
                <path d="M127.97707,88.8778922 L128.208583,88.7517188 L138.759455,105.31428 L138.749241,105.317357 L189.474457,182.75087 L198.343454,196.276038 L202,201.85844 L21.1405533,201.85844 L21.1405533,202 L0.00135852646,202 L0.00135852646,155.426644 L0.0115723426,155.426644 L117.027859,94.5710802 L127.895359,88.7517188 L127.97707,88.8778922 Z M21.1405533,166.486816 L21.1405533,182.75087 L164.906824,182.75087 L144.857103,152.14306 L113.858171,168.265553 L71.4708345,168.265553 L134.088337,135.700517 L120.422251,114.848062 L21.1405533,166.486816 Z M111.368603,0.00830291712 C111.368603,0.00830291712 148.435997,-1.48880223 165.984762,35.723194 C165.984762,35.723194 180.235705,69.1184962 152.226286,96.014021 C151.472304,96.7564127 150.290386,97.4710801 150.290386,97.4710801 L139.282925,80.6733139 C139.282925,80.6733139 139.575008,80.4361183 140.057285,79.9802097 C146.649535,73.9948696 148.483545,64.7011119 148.483545,64.7011119 L148.480149,64.7165142 C150.025473,58.7342546 149.974528,50.8267054 145.72234,40.876809 C145.72234,40.876809 139.541045,21.1556832 111.124068,19.1348993 L21.0911232,19.1348993 L21.0911232,102.957385 L111.602948,54.9514457 C111.602948,54.9514457 112.686373,53.204823 106.100916,53.204823 L58.6543798,53.204823 L58.6543798,65.8778489 L37.5632565,77.063011 L37.5632565,34.0782266 L104.120864,34.0782266 C104.120864,34.0782266 104.562385,34.0597438 105.326556,34.0782266 L106.100916,34.0782266 L106.100916,34.1028703 C111.382188,34.3123418 125.830117,35.9141827 131.301582,46.9299194 C131.301582,46.9299194 134.110335,53.1124091 132.524256,60.5609693 C131.797444,63.0438227 129.369078,67.6860808 121.313016,71.9617638 L21.0911232,125.118238 L0,136.287998 L0,0.00830291712 L111.368603,0.00830291712 Z" id="black-copy-3" fill="#FFFFFF"></path>
                <g filter="url(#filter-1)" id="Group-2">
                    <g transform="translate(0.000000, 212.000000)">
                        <g id="Shape-Copy-5" transform="translate(-0.000000, 0.000000)" fill="#140210">
                            <path d="M2.78895825,8.60299902 L6.78921553,8.60299902 C8.26868362,8.60299902 9.45687885,7.34290925 9.45687885,5.76779704 C9.45687885,4.16794484 8.26868362,2.93259505 6.78921553,2.93259505 L2.78895825,2.93259505 L2.78895825,8.60299902 Z M6.08620002,11.0992632 L2.78895825,11.0992632 L2.78895825,17.2793109 L0,17.2793109 L0,0.31510491 L6.78921553,0.31510491 C9.82076364,0.31510491 12.2458371,2.73962319 12.2458371,5.76779704 C12.2458371,7.94903882 10.863735,9.88865344 8.87515827,10.6877549 L12.7301917,17.2793109 L9.67553978,17.2793109 L6.08620002,11.0992632 Z M28.7105924,8.79704295 C28.7105924,5.30788076 26.0916121,2.71430594 22.6961792,2.71430594 C19.3023966,2.71430594 16.6834162,5.30788076 16.6834162,8.79704295 C16.6834162,12.2870298 19.3023966,14.8806046 22.6961792,14.8806046 C26.0916121,14.8806046 28.7105924,12.2870298 28.7105924,8.79704295 Z M13.894458,8.79704295 C13.894458,3.87790978 17.7981744,0.000329866432 22.6961792,0.000329866432 C27.618938,0.000329866432 31.4987255,3.87790978 31.4987255,8.79704295 C31.4987255,13.7170008 27.618938,17.5945807 22.6961792,17.5945807 C17.7981744,17.5945807 13.894458,13.7170008 13.894458,8.79704295 Z M46.1456246,8.79704295 C46.1456246,5.42910668 43.9392121,2.98067308 40.7137571,2.98067308 L36.8347948,2.98067308 L36.8347948,14.6142375 L40.7137571,14.6142375 C43.9392121,14.6142375 46.1456246,12.1418886 46.1456246,8.79704295 Z M48.8372169,8.79704295 C48.8372169,13.5232043 45.3939261,17.2795583 40.7137571,17.2795583 L34.0458365,17.2795583 L34.0458365,0.315352309 L40.7137571,0.315352309 C45.3939261,0.315352309 48.8372169,4.04696633 48.8372169,8.79704295 Z M54.1725435,8.60299902 L58.1736259,8.60299902 C59.6522689,8.60299902 60.8404641,7.34290925 60.8404641,5.76779704 C60.8404641,4.16794484 59.6522689,2.93259505 58.1736259,2.93259505 L54.1725435,2.93259505 L54.1725435,8.60299902 Z M57.4697853,11.0992632 L54.1725435,11.0992632 L54.1725435,17.2793109 L51.3835853,17.2793109 L51.3835853,0.31510491 L58.1736259,0.31510491 C61.2043489,0.31510491 63.6294224,2.73962319 63.6294224,5.76779704 C63.6294224,7.94903882 62.2473203,9.88865344 60.2587435,10.6877549 L64.113777,17.2793109 L61.0582999,17.2793109 L57.4697853,11.0992632 Z M66.2483202,17.2797232 L66.2483202,0.315517243 L69.0372784,0.315517243 L69.0372784,17.2797232 L66.2483202,17.2797232 Z M88.945077,9.67003447 C88.945077,14.2988852 85.5983271,17.5942508 80.6277103,17.5942508 C75.3418918,17.5942508 71.5833993,13.6680156 71.5833993,8.79671309 C71.5833993,3.92623521 75.3905748,0 80.4816613,0 C83.7071163,0 86.4473916,1.62376751 87.8773515,4.02189648 L85.4778573,5.40403683 C84.6040387,3.82974928 82.7128279,2.71397607 80.4816613,2.71397607 C76.8939719,2.71397607 74.3723575,5.3562062 74.3723575,8.82227773 C74.3723575,12.2380446 76.8444637,14.8802748 80.6516393,14.8802748 C83.7310453,14.8802748 85.6230811,13.2812472 86.1321898,11.0026949 L80.4577324,11.0026949 L80.4577324,8.50725529 L88.945077,8.50725529 L88.945077,9.67003447 Z M105.459093,8.79704295 C105.459093,5.30788076 102.840113,2.71430594 99.4446796,2.71430594 C96.050897,2.71430594 93.4319167,5.30788076 93.4319167,8.79704295 C93.4319167,12.2870298 96.050897,14.8806046 99.4446796,14.8806046 C102.840113,14.8806046 105.459093,12.2870298 105.459093,8.79704295 Z M90.6429584,8.79704295 C90.6429584,3.87790978 94.5475,0.000329866432 99.4446796,0.000329866432 C104.368264,0.000329866432 108.247226,3.87790978 108.247226,8.79704295 C108.247226,13.7170008 104.368264,17.5945807 99.4446796,17.5945807 C94.5475,17.5945807 90.6429584,13.7170008 90.6429584,8.79704295 Z" id="Shape-Copy-4"></path>
                        </g>
                        <g id="Group" transform="translate(115.610387, -0.000000)" fill="#000000">
                            <path d="M16.6340249,9.5032251 C16.6340249,13.4017338 13.5944902,16.6534194 8.66995207,16.6534194 C3.55797711,16.6534194 0,12.9397173 0,8.32670969 C0,3.71370211 3.55797711,0 8.57556896,0 C11.6390318,0 14.3010341,1.56825339 15.6675951,3.89915946 L14.5602553,4.54403046 C13.4768436,2.51376051 11.1677809,1.1765154 8.57556896,1.1765154 C4.24059293,1.1765154 1.24891444,4.35987456 1.24891444,8.32670969 C1.24891444,12.2941955 4.24059293,15.476904 8.66995207,15.476904 C12.6752519,15.476904 15.1019611,13.0555468 15.361847,10.033568 L8.36353932,10.033568 L8.36353932,8.88047883 L16.6340249,8.88047883 L16.6340249,9.5032251 Z" id="Path"></path>
                            <path d="M25.8832759,1.51836796e-14 L32.1948868,16.6534194 L30.8906449,16.6534194 L29.3071573,12.4182478 L21.1321558,12.4182478 L19.5486682,16.6534194 L18.2437692,16.6534194 L24.579691,1.51836796e-14 L25.8832759,1.51836796e-14 Z M25.2314834,1.54573694 L21.5980034,11.2282385 L28.8649634,11.2282385 L25.2314834,1.54573694 Z" id="Combined-Shape"></path>
                            <path d="M41.3552341,-1.21803512e-13 C44.0301659,-1.21803512e-13 46.2131486,2.21222273 46.2131486,4.92447759 C46.2131486,7.18435439 44.687643,9.08850362 42.5993423,9.65901009 L46.6825859,16.6534194 L45.2511001,16.6534194 L41.3075621,9.82479256 L36.1212401,9.82479256 L36.1212401,16.6534194 L34.8777941,16.6534194 L34.8777941,-1.21803512e-13 L41.3552341,-1.21803512e-13 Z M41.3552341,1.188667 L36.1212401,1.188667 L36.1212401,8.63612555 L41.3552341,8.63612555 C43.3501771,8.63612555 44.9690405,6.97158903 44.9690405,4.92447759 C44.9690405,2.85521707 43.3501771,1.188667 41.3552341,1.188667 Z" id="Combined-Shape"></path>
                            <path d="M49.3654932,8.32670969 C49.3654932,3.71305138 52.8938435,0 57.8703137,0 C60.8838794,0 63.5237156,1.52205173 64.8795565,3.87443181 L63.7807783,4.4978288 C62.706388,2.51310979 60.4402815,1.1765154 57.8703137,1.1765154 C53.5707752,1.1765154 50.6040081,4.35922384 50.6040081,8.32670969 C50.6040081,12.2941955 53.5707752,15.4762532 57.8703137,15.4762532 C60.4633512,15.4762532 62.7525275,14.1155819 63.8275769,12.0859627 L64.9263551,12.708709 C63.5935839,15.085166 60.930678,16.6534194 57.8703137,16.6534194 C52.8938435,16.6534194 49.3654932,12.9397173 49.3654932,8.32670969 Z" id="Path"></path>
                            <polygon id="Path" points="68.1458438 16.6534194 68.1458438 0 69.2190067 0 69.2190067 16.6534194"></polygon>
                            <path d="M80.0782993,1.51836796e-14 L86.389613,16.6534194 L85.0854326,16.6534194 L83.5020195,12.4182478 L75.326746,12.4182478 L73.7439899,16.6534194 L72.4384954,16.6534194 L78.7741188,1.51836796e-14 L80.0782993,1.51836796e-14 Z M79.4265376,1.54573694 L75.7932287,11.2282385 L83.0591894,11.2282385 L79.4265376,1.54573694 Z" id="Combined-Shape"></path>
                        </g>
                    </g>
                </g>
            </g>
        </g>
    </g>
</svg>