<svg xmlns="http://www.w3.org/2000/svg" width="42" height="42" viewBox="0 0 42 42">
    <g>
        <path d="M19.347 41.985c-.098-.01-.413-.047-.697-.073-4.039-.423-8.016-2.133-11.26-4.849-.598-.496-1.962-1.859-2.458-2.458C2.247 31.398.677 27.799.098 23.538c-.129-.945-.129-4.136 0-5.081.579-4.26 2.149-7.86 4.834-11.067.496-.6 1.86-1.962 2.459-2.458C10.598 2.246 14.198.677 18.459.098c.945-.129 4.137-.129 5.082 0 4.261.579 7.86 2.148 11.068 4.834.6.496 1.963 1.859 2.459 2.458 2.685 3.207 4.255 6.806 4.834 11.067.129.945.129 4.136 0 5.081-.579 4.26-2.149 7.86-4.834 11.067-.496.599-1.86 1.962-2.459 2.458-3.197 2.675-6.833 4.266-11.037 4.829-.454.062-1.116.087-2.34.098-.934.01-1.787.005-1.885-.005zm.259-2.231c0-.605.04-1.916.098-3.16.03-.61.067-1.483.082-1.937.057-1.612.228-5.841.253-6.218l.026-.377-.232.026c-.13.01-.248.041-.269.057-.015.02-.051.377-.072.795-.093 1.838-.398 8.97-.429 10.013l-.03 1.147.144.02c.077.01.206.026.29.031l.139.005v-.402zm4.942.124c.005-.006.02-1.565.036-3.466.021-1.905.047-3.615.062-3.8.016-.191.01-.357-.015-.367-.02-.016-.15-.016-.28 0l-.237.02-.036 1.503c-.02.832-.046 1.751-.057 2.05-.04.915-.077 4.018-.046 4.096.02.056.077.062.294.026.15-.031.274-.057.28-.062zm-11.946-1.73c.031-.047.274-2.892.573-6.616.098-1.265.197-2.422.212-2.566.026-.264.02-.274-.145-.377-.092-.057-.185-.104-.206-.104-.016 0-.047.135-.062.3-.072.671-.351 3.914-.548 6.259-.113 1.379-.216 2.613-.232 2.747-.026.227-.02.248.114.32.165.088.258.104.294.037zm14.219-1.038c.144-.052.16-.078.19-.372.052-.517.037-2.985-.02-2.985-.15 0-.46.175-.485.274-.016.062-.031.795-.031 1.626 0 1.679-.021 1.58.346 1.457zm-9.54-.243c0-.14.037-.91.078-1.72.041-.81.088-1.838.108-2.282.036-.899.047-.868-.3-.889-.17-.005-.17-.005-.18.253-.01.145-.036.594-.067 1.007-.026.414-.088 1.307-.13 1.989-.04.681-.092 1.358-.108 1.502-.03.259-.026.269.114.32.083.032.227.057.32.057.165.006.165.006.165-.237zm14.327-.708l.176-.072.036-.692c.016-.377.026-1.193.016-1.807l-.016-1.126-.217.108-.217.104-.015 1.714c-.01.945-.005 1.746.005 1.782.02.077.02.077.232-.01zm-9.43-.676c.03-.031.103-2.536.108-3.806l.005-.764-.243.036c-.139.015-.253.03-.258.036-.015.01-.17 3.837-.17 4.209v.382l.263-.031c.15-.02.28-.047.295-.062zm11.894-.367c.062-.072.072-1.203.088-7.441.015-7.163.015-7.349-.078-7.349-.056 0-.134.031-.18.067-.078.057-.088.682-.114 6.801-.02 3.708-.046 7.075-.062 7.483l-.031.744.15-.109c.088-.062.186-.15.227-.196zm-4.633-1.058c.026-.021.052-.315.057-.651.026-1.141.031-8.139.005-8.16-.01-.01-.103.016-.206.057l-.186.078V34.166l.144-.031c.078-.02.16-.052.186-.077zm-14.255-.29c.016-.14.042-.454.057-.712.016-.253.052-.832.083-1.281.062-.909.052-.966-.243-.966-.155 0-.175.016-.196.17-.052.305-.233 2.846-.207 2.887.026.037.295.13.419.14.03.005.072-.103.087-.238zm-8.542-1.317c.057-.547.17-1.693.253-2.545.088-.853.16-1.575.16-1.606 0-.062-.398-.259-.439-.217-.026.025-.542 4.596-.542 4.802 0 .124.397.646.45.589.015-.01.066-.47.118-1.023zm20.251-.542l.15-.088.005-1.115c.005-.61.015-1.291.015-1.513.01-.465-.046-.542-.325-.444l-.16.057v.444c0 .248-.016.965-.036 1.6l-.031 1.147h.119c.062 0 .18-.041.263-.088zM8.909 29.906c.093-.992.243-2.665.341-3.719l.176-1.91-.202-.202-.196-.201-.036.408c-.02.227-.124 1.28-.233 2.344-.108 1.064-.263 2.608-.34 3.43l-.145 1.487.201.186c.181.17.202.175.238.082.02-.052.108-.909.196-1.905zm-3.868-.625c.113-1.018.413-3.724.671-6.011.258-2.288.501-4.493.548-4.906.041-.413.113-1.038.155-1.395.072-.604.072-.645-.01-.707-.125-.093-.176-.083-.176.026 0 .046-.047.439-.104.862-.093.708-.247 1.906-.594 4.596-.072.542-.211 1.622-.31 2.402-.103.78-.252 1.941-.335 2.582-.083.64-.222 1.735-.31 2.442-.093.703-.15 1.327-.134 1.395.036.139.34.624.372.593.01-.015.113-.857.227-1.88zm-1.58-2.226c.077-.62.221-1.75.32-2.52.098-.764.222-1.72.279-2.117l.098-.723-.109-.093c-.062-.052-.124-.073-.144-.052-.021.02-.062.227-.093.454-.031.228-.222 1.555-.43 2.944l-.366 2.53.119.352c.062.19.13.346.145.346.02 0 .098-.507.18-1.121zm28.354.676c.072-.072.083-.392.083-2.762v-2.68h-.145c-.315 0-.31-.078-.33 2.855l-.016 2.67h.165c.088 0 .202-.036.243-.083zm-11.306-.924c1.168-.175 2.185-.5 3.192-1.017.65-.336.96-.568 1.684-1.26 1.074-1.028 1.735-1.927 2.355-3.197.904-1.849 1.255-3.486 1.7-7.875.2-1.968.464-5.536.52-6.998.016-.423.053-1.12.084-1.549.056-.909.123-.785-.677-1.172-1.11-.537-2.18-.909-3.59-1.255-1.725-.424-2.84-.558-4.545-.563l-1.24-.005.011.594c0 .325.031 1.084.062 1.678.155 2.877.124 6.507-.077 8.521-.114 1.157-.336 2.561-.46 2.871-.026.067.093.124.604.3.935.325 1.746.733 1.87.934.222.383-.176.93-.682.93-.088 0-.351-.093-.594-.201-1.157-.532-3.476-1.157-4.813-1.297-.925-.098-2.36-.04-3.357.14-.543.098-1.514.465-2.325.883-.934.485-1.508 1.13-1.678 1.895-.093.413-.067 1.24.052 1.704.129.512.49 1.255.82 1.689 1.473 1.937 4.51 3.615 7.624 4.204.992.186 2.396.206 3.46.046zm15.934-.16c.186-.077.206-.098.206-.274.01-1.41-.02-4.632-.046-4.766-.005-.047-.274-.052-.388-.01-.072.025-.082.304-.082 2.582 0 1.631.02 2.55.051 2.55.026 0 .145-.036.259-.082zm2.257-2.835l.186-.078-.037-4.275c-.04-5.449-.046-5.609-.242-6.079-.32-.77-.305-.924-.274 2.453.01 1.689.036 3.398.046 3.796.01.398.021 1.518.026 2.494 0 1.178.016 1.766.052 1.766.03 0 .14-.036.243-.077zM7.639 22.526c.03-.418.02-.46-.13-.79l-.165-.351-.062.516c-.098.826-.098.863.098.986.088.062.181.104.197.093.015-.01.046-.216.062-.454zm-3.192-3.114c.046-.423.408-3.233.594-4.612.279-2.132.3-2.437.175-2.308-.015.016-.134.733-.258 1.596-.806 5.567-.8 5.53-.733 5.572.14.093.186.041.222-.248zm3.719-2.365c.03-.13.18-1.529.18-1.7 0-.144-.186-.278-.268-.195-.026.025-.093.464-.145.97-.057.512-.114 1.044-.129 1.183l-.031.258.18-.206c.104-.114.197-.253.213-.31zm4.167-1.947c.057-.052.093-.258.14-.816.077-1.007.088-.93-.124-.93-.217 0-.212-.015-.284.894-.072.924-.072.914.067.914.067 0 .155-.031.201-.062zm4.091-.077c.01-.052.036-.362.057-.687.015-.326.062-1.059.103-1.627.145-2.086.15-2.35.062-2.35-.098 0-.108.078-.222 1.55-.041.609-.119 1.57-.17 2.132-.047.563-.078 1.033-.062 1.043.056.062.206.016.232-.061zm-9.71-.992c.031-.046.227-1.699.47-3.956.073-.681.145-1.337.16-1.461l.026-.222-.129.082c-.098.067-.134.135-.134.253 0 .326-.222 2.469-.393 3.78-.098.744-.175 1.4-.175 1.462 0 .108.124.15.175.062zm29.806-2.159l-.036-2.158-.13-.191c-.293-.434-.278-.517-.263 1.9l.01 2.216.192.196c.103.103.207.19.227.19.016 0 .016-.97 0-2.153zM31.743 8.45c.026-3 .02-3.233-.062-3.326-.052-.057-.098-.093-.114-.078-.036.042-.088 6.585-.046 6.62.02.021.072.032.118.027.068-.016.083-.383.104-3.243zm-16.868 2.055c.036-.32.165-1.854.216-2.577.031-.485.031-.501-.082-.537-.062-.02-.134-.016-.155.01-.036.036-.15 1.183-.29 2.949l-.035.423h.16c.15 0 .16-.01.186-.268zm-4.06-1.808c.036-.036.062-.165.062-.294 0-.134.062-.831.13-1.554.195-1.978.21-2.247.123-2.195-.134.077-.253.196-.227.227.01.02-.01.279-.052.573-.036.3-.082.785-.103 1.085-.02.3-.067.847-.109 1.213-.098.904-.093 1.007.021 1.007.052 0 .119-.025.155-.062zm2.443-3.475c.015-.114.046-.537.067-.94.036-.775.02-.831-.191-.671-.062.046-.103.242-.165.831-.109 1.064-.114 1.023.088 1.002.15-.015.17-.036.201-.222z" transform="matrix(1 0 0 -1 0 42)"/>
        <path d="M11.414 24.333c-.537-.232-.578-.96-.072-1.218.367-.186.738-.098.93.222.361.588-.228 1.27-.858.996zM14.916 23.838c-.496-.305-.496-1.038 0-1.343.49-.294 1.126.093 1.126.682 0 .568-.651.95-1.126.66z" transform="matrix(1 0 0 -1 0 42)"/>
    </g>
</svg>
