<svg xmlns="http://www.w3.org/2000/svg" width="43" height="25" viewBox="0 0 43 25">
    <path d="M43 24.338c-1.564.398-2.531.017-3.399-1.289-1.948-2.924-4.099-5.713-6.174-8.554-.267-.368-.545-.729-.891-1.186-2.456 3.319-4.909 6.48-7.21 9.768-.823 1.175-1.687 1.687-3.224 1.27l9.233-12.412L22.74.725c1.478-.289 2.5-.141 3.406 1.185 2 2.927 4.205 5.713 6.403 8.661 2.213-2.937 4.39-5.727 6.448-8.627.827-1.175 1.715-1.621 3.2-1.188-1.125 1.494-2.226 2.964-3.333 4.425-1.496 1.968-2.964 3.96-4.514 5.888-.552.687-.463 1.134.03 1.783 2.868 3.776 5.701 7.59 8.62 11.486zM.01 11.728c.247-1.24.412-2.504.755-3.72C2.823.646 11.26-2.416 17.057 2.147c3.395 2.676 4.239 6.449 4.07 10.702H1.99c-.288 7.63 5.197 12.238 12.187 9.888 2.452-.825 3.896-2.749 4.62-5.154.367-1.206.974-1.395 2.105-1.051-.58 3.01-1.893 5.524-4.637 7.098-4.115 2.357-9.99 1.594-13.081-1.68C1.358 20.026.583 17.63.24 15.044c-.051-.412-.158-.817-.24-1.226.007-.697.01-1.393.01-2.09zm2.014-.511H19.32c-.113-5.518-3.543-9.438-8.231-9.472-5.145-.041-8.842 3.786-9.065 9.472z"/>
</svg>
