<svg xmlns="http://www.w3.org/2000/svg" width="18" height="42" viewBox="0 0 18 42">
    <path fill="#EB4A4B" fill-rule="evenodd" d="M.007 11.263l.877 9.483c.483-.85.832-1.667 1.36-2.336.49-.623 1.108-1.198 1.781-1.596.879-.52 2.03-.03 2.315.892.077.247-.106.579-.17.872-.214-.116-.492-.18-.632-.359-.596-.756-.956-.845-1.615-.192-1.23 1.22-1.923 2.749-2.187 4.466-.05.333.152.706.238 1.06.336-.12.726-.163.998-.37.884-.675 1.431-1.592 1.733-2.688.066-.238.42-.391.643-.583.107.224.35.489.299.667-.469 1.65-.976 3.291-1.51 4.922-.053.165-.349.247-.533.368-.074-.217-.23-.444-.205-.648.056-.464.201-.916.303-1.34l-2.409 1.137c.135 1.577.275 3.346.44 5.112.127 1.349.343 1.698 1.638 1.954 1.511.299 3.051.49 4.588.605 2.27.172 4.52-.04 6.729-.65.822-.226 1.15-.78 1.21-1.608.053-.763.173-1.52.257-2.281.164-1.498.323-2.996.49-4.557-.554.36-.99.763-1.5.934-.37.125-.84-.057-1.265-.103.082-.4.077-.852.265-1.19.307-.552.74-1.03 1.12-1.54l-.164-.202c-.272.165-.61.273-.803.507-.393.476-.778.985-1.041 1.542-.44.933-.776 1.918-1.17 2.875-.172.414-.32 1.049-.893.807-.614-.26-.182-.814-.038-1.209.23-.629.532-1.23.737-1.692-.581.07-1.17.156-1.761.21-.25.02-.548-.12-.752-.025-.68.315-1.112.189-1.253-.584-.315.21-.582.494-.896.57-.382.094-.9.155-1.179-.04-.224-.157-.305-.745-.229-1.09.152-.687.437-1.347.706-2 .167-.404.335-1.05.899-.768.557.277.051.745-.077 1.12-.2.582-.403 1.161-.603 1.741l.319.198c.304-.27.683-.492.896-.824.348-.543.559-1.178.889-1.735.137-.23.43-.363.654-.54.045.294.154.596.118.88-.036.287-.232.55-.326.833-.142.425-.256.86-.4 1.354.68.027.971-.267 1.163-.784.607-1.636 1.221-3.269 1.889-4.879.114-.275.502-.431.764-.643.03.333.174.71.072.99-.548 1.483-1.162 2.94-1.74 4.412-.097.248-.128.524-.19.786 1.018-.469 1.867-.987 2.177-2.096.076-.27.387-.47.59-.703l.47.512c.143-.123.274-.264.43-.367.489-.323 1.015-.608 1.53-.107.534.517.13 1.022-.148 1.47-.304.487-.675.93-1.017 1.393.769-.508 1.819-.736 1.959-1.834.34-2.684.64-5.372.943-8.06.09-.796.139-1.596.209-2.425C11.942 12.79 6.014 12.8.007 11.263zm2.6 20.936c.292.79.735 1.567.851 2.392.245 1.756.307 3.538.481 5.306.025.258.188.612.39.725 2.988 1.665 6.004 1.953 9.052.133.454-.272.539-.63.597-1.135.285-2.45-.35-5.048 1.178-7.355-4.276 1.088-8.45 1.122-12.549-.066zm10.309-20.496c1.45-.144 2.884-.493 4.32-.782.27-.054.51-.265.764-.404-.335-.302-.625-.447-.927-.484-1.507-.182-3.02-.323-4.525-.514-.228-.03-.634-.317-.617-.37.44-1.358.418-2.894 1.415-4.039 1.26-1.446 2.534-2.88 3.797-4.314-.94-1.038-.952-1.039-1.804-.131-.482.513-.922 1.074-1.444 1.54-1.934 1.718-3.292 3.753-3.557 6.437-.06.616-.39.839-1.02.848-2.082.031-4.165.09-6.241.23-1.03.07-2.045.34-3.068.52L0 10.632c.64.202 1.267.468 1.92.596 3.64.716 7.315.839 10.996.475zm-1.163-.938c-.824.683-1.505.683-2.162 0h2.162z"/>
</svg>
