<svg xmlns="http://www.w3.org/2000/svg" width="36" height="36" viewBox="0 0 36 36">
    <g fill="none">
        <path fill="#F0DB4F" d="M0 0L36 0 36 36 0 36z"/>
        <path fill="#323330" d="M32.905 28.194c-.256-1.66-1.295-3.053-4.375-4.352-1.07-.511-2.263-.878-2.618-1.721-.127-.49-.143-.767-.064-1.065.23-.964 1.336-1.265 2.213-.988.565.197 1.1.65 1.422 1.372 1.508-1.016 1.505-1.01 2.559-1.707-.386-.622-.592-.91-.844-1.175-.907-1.054-2.143-1.597-4.12-1.556l-1.03.139c-.987.26-1.927.798-2.478 1.52-1.655 1.953-1.183 5.371.83 6.778 1.984 1.549 4.897 1.901 5.27 3.35.362 1.772-1.253 2.346-2.858 2.142-1.182-.255-1.84-.88-2.551-2.018-1.31.788-1.31.788-2.655 1.593.319.726.654 1.055 1.19 1.683 2.531 2.672 8.867 2.54 10.003-1.503.046-.139.352-1.065.106-2.492zm-13.09-10.978h-3.27l-.013 8.793c0 1.87.093 3.584-.2 4.11-.478 1.033-1.717.905-2.282.705-.575-.294-.867-.712-1.206-1.303-.093-.17-.162-.3-.186-.311L10 30.903c.442.944 1.093 1.763 1.927 2.295 1.246.778 2.92 1.017 4.672.598 1.14-.345 2.123-1.06 2.637-2.15.745-1.427.585-3.155.578-5.066.017-3.118 0-6.236 0-9.364z"/>
    </g>
</svg>
