<svg xmlns="http://www.w3.org/2000/svg" width="17" height="38" viewBox="0 0 17 38">
    <g fill="none" fill-rule="evenodd">
        <path fill="#439934" d="M15.797 12.4c.487 1.447.838 2.923.954 4.453.143 1.899.077 3.784-.313 5.651-.01.051-.033.1-.05.15-.122 0-.247-.016-.366.003-1.01.163-2.02.332-3.03.5-1.044.173-2.089.34-3.13.525-.37.066-.827-.012-.976.512-.004.014-.047.016-.071.024l.05-3.13-.051-7.554.486-.086c.796-.133 1.59-.269 2.387-.399.95-.155 1.9-.305 2.851-.456.42-.067.84-.128 1.26-.193z"/>
        <path fill="#45A538" d="M7.81 33.345c-.512-.453-1.043-.886-1.535-1.361-2.646-2.561-4.582-5.576-5.535-9.21-.263-1-.438-2.016-.494-3.05-.04-.723-.097-1.453-.047-2.172.133-1.914.402-3.81.95-5.652l.03-.043c.053.072.13.136.156.218.534 1.614 1.064 3.228 1.591 4.844 1.657 5.077 3.312 10.155 4.972 15.231.032.1.116.18.177.27l-.264.925z"/>
        <path fill="#46A037" d="M15.797 12.4c-.42.065-.84.126-1.26.192-.95.151-1.9.302-2.85.457-.796.13-1.592.265-2.387.399l-.486.085-.004-.325c-.016-.268-.044-.535-.047-.803-.02-1.706-.034-3.412-.054-5.118-.013-1.068-.032-2.136-.054-3.204-.013-.663-.027-1.327-.056-1.99-.016-.356-.071-.71-.094-1.066-.013-.204.005-.41.009-.616.248.493.49.99.745 1.479.403.774 1.045 1.344 1.623 1.966 2.283 2.458 3.905 5.316 4.915 8.544z"/>
        <path fill="#409433" d="M8.815 24.218c.024-.008.067-.01.07-.025.15-.524.607-.445.976-.51 1.042-.186 2.087-.353 3.13-.526 1.01-.168 2.02-.337 3.03-.5.12-.02.245-.003.367-.004-.189.692-.337 1.398-.577 2.07-.272.763-.6 1.508-.95 2.238-.522 1.09-1.173 2.108-1.929 3.04-.582.72-1.232 1.384-1.883 2.04-.36.363-.783.659-1.178.985l-.102-.072-.369-.323-.381-.858c-.263-1.004-.4-2.026-.423-3.064l.007-.175.052-.755c.017-.258.04-.516.05-.774.04-.93.074-1.858.11-2.787z"/>
        <path fill="#4FAA41" d="M8.815 24.218c-.036.929-.07 1.858-.109 2.787-.01.258-.034.516-.05.774l-.233.09c-.516-1.558-1.032-3.1-1.537-4.645-.835-2.557-1.66-5.118-2.493-7.675-.673-2.065-1.352-4.127-2.034-6.189-.032-.096-.123-.171-.187-.257L3.658 6.3c.051.091.118.176.15.274.688 2.088 1.375 4.176 2.055 6.266.885 2.72 1.765 5.44 2.65 8.16.035.11.093.21.149.331l.203-.243-.05 3.131z"/>
        <path fill="#4AA73C" d="M2.172 9.103c.064.086.155.161.187.258.683 2.061 1.361 4.123 2.034 6.188.834 2.557 1.659 5.118 2.494 7.675.504 1.545 1.02 3.087 1.536 4.645l.232-.09-.051.756-.048.174c-.08.827-.148 1.656-.247 2.482-.05.413-.154.82-.234 1.23-.06-.09-.144-.171-.177-.27-1.66-5.077-3.314-10.155-4.971-15.232-.528-1.615-1.058-3.23-1.592-4.843-.027-.082-.103-.146-.156-.22l.993-2.753z"/>
        <path fill="#57AE47" d="M8.865 21.088l-.204.242c-.055-.121-.113-.222-.149-.33-.884-2.72-1.764-5.441-2.65-8.16-.68-2.09-1.366-4.179-2.054-6.267-.032-.097-.099-.183-.15-.273l1.838-2.481c.058.08.14.15.17.24.51 1.532 1.017 3.067 1.52 4.602.469 1.434.931 2.87 1.407 4.303.031.096.142.163.216.244l.004.326.052 7.554z"/>
        <path fill="#60B24F" d="M8.81 13.208c-.074-.081-.185-.15-.217-.245-.475-1.432-.938-2.868-1.407-4.302-.503-1.536-1.009-3.07-1.519-4.603-.03-.09-.113-.16-.17-.24.597-.6 1.176-1.222 1.798-1.795.553-.51.997-1.055 1.018-1.86 0-.032.018-.066.044-.16l.157.408c-.004.205-.022.411-.009.616.023.356.08.71.095 1.066.029.663.043 1.326.056 1.99.021 1.068.04 2.135.053 3.203.02 1.707.034 3.413.055 5.12.002.267.03.534.046.802z"/>
        <path fill="#A9AA88" d="M8.074 32.42c.08-.41.185-.816.235-1.23.098-.825.166-1.654.247-2.481l.02-.003.02.003c.023 1.038.16 2.06.423 3.064-.053.073-.129.137-.157.219-.22.638-.429 1.282-.65 1.92-.031.087-.115.155-.175.232l-.227-.8.264-.924z"/>
        <path fill="#B6B598" d="M8.037 34.144c.06-.076.145-.144.175-.231.222-.639.43-1.282.65-1.921.028-.082.104-.146.157-.218l.381.857c-.075.11-.179.209-.22.33l-.73 2.2c-.03.088-.133.15-.202.224l-.21-1.24z"/>
        <path fill="#C2C1A7" d="M8.248 35.385c.07-.074.172-.137.202-.225l.73-2.198c.041-.122.145-.221.22-.33l.37.322c-.179.18-.278.39-.218.653l-.112.377c-.051.064-.125.12-.15.194-.255.748-.498 1.5-.755 2.25-.032.094-.122.169-.186.252l-.1-1.295z"/>
        <path fill="#CECDB7" d="M8.35 36.68c.063-.084.153-.158.186-.253.256-.748.5-1.5.754-2.25.025-.073.099-.129.15-.193l-.155 1.727c-.04.049-.1.091-.12.148-.175.503-.34 1.01-.515 1.512-.036.104-.105.195-.16.292-.047-.064-.133-.126-.137-.194-.015-.262-.005-.526-.004-.789z"/>
        <path fill="#DBDAC7" d="M8.49 37.663c.055-.097.124-.188.16-.292.175-.502.34-1.009.514-1.512.02-.057.08-.1.121-.148l.004 1.133-.37.973-.428-.154z"/>
        <path fill="#EBE9DC" d="M8.919 37.818L9.289 36.845 9.365 37.996 8.919 37.818z"/>
        <path fill="#CECDB7" d="M9.552 33.608c-.06-.264.039-.473.217-.654l.103.072-.32.582z"/>
        <path fill="#4FAA41" d="M8.596 28.709L8.576 28.706 8.556 28.709 8.603 28.535 8.596 28.709z"/>
    </g>
</svg>
