<svg xmlns="http://www.w3.org/2000/svg" width="50" height="11" viewBox="0 0 50 11">
    <path fill="#090" d="M9.368 0c-.598 0-.996.498-.996 1.12v5.854L2.033.332C1.714 0 1.156-.083.757.083.36.249 0 .664 0 1.121v8.592c0 .623.598 1.121 1.196 1.121s1.196-.498 1.196-1.12V3.86l6.418 6.642c.2.207.478.332.757.332.12 0 .16-.042.28-.083.398-.166.518-.581.518-1.038v-8.55C10.365.54 9.966 0 9.368 0zm7.853 4.898c-.558 0-1.076.581-1.076 1.162 0 .582.518 1.163 1.076 1.163l2.632.166-.598 1.536h-3.389l-1.674-3.28 1.714-3.362h3.628l.837 1.66h2.192L21.128.664 20.81.208H14.59l-.279.498L11.96 4.98l-.279.54.28.54 2.311 4.275.32.664h6.019l.279-.706 1.714-3.736.758-1.784h-1.754l-4.386.124zM25.513 0c-.558 0-1.196.54-1.196 1.12v2.823h2.392v-2.78C26.71.54 26.071 0 25.513 0zm12.12.125c-.4-.167-.958-.083-1.237.249l-6.498 6.641V1.162c0-.622-.398-1.12-.996-1.12s-.997.498-.997 1.12v8.593c0 .456.28.871.678 1.037.12.042.279.083.398.083.28 0 .638-.124.838-.332l6.458-6.641v5.853c0 .622.398 1.12.996 1.12s.997-.498.997-1.12V1.162c0-.456-.24-.871-.638-1.037zm8.69 5.313L49.67 1.95c.439-.457.439-1.162 0-1.577-.438-.457-1.116-.457-1.515 0L44.808 3.86 41.459.374c-.438-.457-1.116-.457-1.515 0-.438.456-.438 1.162 0 1.577l3.349 3.487-3.349 3.487c-.438.456-.438 1.162 0 1.577.2.207.479.332.758.332s.558-.125.757-.332l3.349-3.487 3.348 3.487c.2.207.479.332.758.332s.558-.125.757-.332c.439-.457.439-1.162 0-1.577l-3.348-3.487zM24.317 9.713c0 .581.598 1.121 1.196 1.121.558 0 1.196-.54 1.196-1.12v-4.94h-2.392v4.94z"/>
</svg>
