<svg xmlns="http://www.w3.org/2000/svg" width="31" height="36" viewBox="0 0 31 36">
    <path fill="#83CD29" d="M29.314 7.977L16.951.354c-.78-.472-1.795-.472-2.581 0L1.874 7.977C1.07 8.468.5 9.392.5 10.38v15.226c0 .988.584 1.913 1.389 2.407l3.301 1.99c1.578.826 2.136.826 2.854.826 2.336 0 3.671-1.5 3.671-4.117V11.68c0-.212-.104-.528-.3-.528H9.838c-.2 0-.646.316-.646.528v15.032c0 1.16-.988 2.314-2.835 1.334l-3.411-2.088c-.12-.069-.203-.206-.203-.352V10.38c0-.143.156-.287.275-.36l12.456-7.61c.116-.07.287-.07.403 0l12.303 7.607c.118.076.077.215.077.363v15.226c0 .146.051.287-.065.357l-12.36 7.614c-.107.068-.238.068-.354 0l-3.17-2.009c-.096-.059-.21-.08-.301-.025-.883.53-1.045.6-1.873.905-.203.076-.503.207.115.575l4.15 2.606c.397.244.848.371 1.302.371.46 0 .912-.127 1.309-.371l12.304-7.616c.805-.498 1.186-1.419 1.186-2.407V10.38c0-.988-.381-1.91-1.186-2.403zM19.54 23.194c-3.287 0-4.012-.964-4.253-2.7-.028-.187-.178-.41-.357-.41h-1.607c-.198 0-.358.256-.358.466 0 2.223 1.138 4.916 6.575 4.916 3.937 0 6.193-1.624 6.193-4.498 0-2.85-1.813-3.598-5.63-4.134-3.859-.542-4.25-.815-4.25-1.775 0-.792.331-1.847 3.188-1.847 2.553 0 3.494.582 3.881 2.409.033.172.181.295.348.295h1.613c.1 0 .194-.043.264-.118.067-.081.103-.183.094-.292-.25-3.146-2.219-4.612-6.2-4.612-3.541 0-5.654 1.588-5.654 4.25 0 2.887 2.102 3.685 5.502 4.042 4.066.423 4.383 1.054 4.383 1.904 0 1.475-1.116 2.104-3.732 2.104z"/>
</svg>
