<svg xmlns="http://www.w3.org/2000/svg" width="42" height="36" viewBox="0 0 42 36">
    <g fill="#61DAFB">
        <circle cx="21" cy="18" r="4"/>
        <path d="M35.526 11.946c-.738-.257-1.51-.515-2.315-.74.201-.773.369-1.546.503-2.287.705-4.25-.067-7.245-2.214-8.404C30.863.161 30.158 0 29.353 0 27.005 0 24.019 1.674 21 4.476 17.98 1.674 14.995 0 12.647 0c-.805 0-1.51.161-2.147.515C8.353 1.707 7.581 4.701 8.286 8.92c.134.741.302 1.514.503 2.287-.805.225-1.577.45-2.315.74C2.281 13.492 0 15.617 0 18c0 2.383 2.315 4.508 6.474 6.054.738.257 1.51.515 2.315.74-.201.773-.369 1.546-.503 2.287-.705 4.25.067 7.245 2.214 8.404.637.354 1.342.515 2.147.515 2.382 0 5.367-1.674 8.353-4.476C24.02 34.326 27.005 36 29.353 36c.805 0 1.51-.161 2.147-.515 2.147-1.192 2.919-4.186 2.214-8.404-.134-.741-.302-1.514-.503-2.287.805-.225 1.577-.45 2.315-.74C39.719 22.508 42 20.383 42 18c0-2.383-2.281-4.508-6.474-6.054zm-4.965-9.82c1.375.772 1.845 3.155 1.274 6.536-.1.676-.268 1.385-.47 2.125-1.744-.386-3.589-.644-5.534-.805-1.14-1.546-2.315-2.93-3.49-4.186 2.483-2.35 5-3.96 7.046-3.96.436 0 .838.096 1.174.29zM26.804 21.22c-.604 1.03-1.309 2.06-2.047 3.091-1.241.097-2.482.13-3.757.13-1.308 0-2.55-.033-3.757-.13-.738-1.03-1.41-2.06-2.013-3.091-.637-1.063-1.241-2.157-1.778-3.22.537-1.063 1.14-2.157 1.778-3.22.604-1.03 1.308-2.06 2.046-3.091 1.242-.097 2.483-.13 3.758-.13 1.308 0 2.55.033 3.757.13.738 1.03 1.409 2.06 2.013 3.091.637 1.063 1.24 2.157 1.777 3.22-.57 1.063-1.14 2.125-1.777 3.22zm2.784-1.063c.503 1.127.906 2.222 1.275 3.317-1.141.258-2.349.45-3.623.612.402-.612.838-1.256 1.207-1.932.403-.676.772-1.353 1.14-1.997zM21 28.884c-.805-.837-1.577-1.74-2.315-2.673.772.032 1.543.064 2.315.064s1.543-.032 2.315-.064c-.738.934-1.51 1.836-2.315 2.673zm-6.24-4.83c-1.274-.161-2.482-.355-3.623-.612.37-1.063.772-2.19 1.275-3.317.37.644.738 1.32 1.14 1.964.403.709.806 1.32 1.208 1.965zm-2.348-8.211c-.503-1.127-.906-2.222-1.275-3.317 1.141-.258 2.349-.45 3.623-.612-.402.612-.838 1.256-1.207 1.932-.403.676-.772 1.353-1.14 1.997zM21 7.116c.805.837 1.577 1.74 2.315 2.673-.772-.032-1.543-.064-2.315-.064s-1.543.032-2.315.064c.738-.934 1.51-1.836 2.315-2.673zm7.447 6.762l-1.207-1.932c1.274.161 2.482.355 3.623.612-.37 1.063-.772 2.19-1.275 3.317-.37-.676-.738-1.353-1.14-1.997zM10.165 8.662c-.57-3.381-.101-5.764 1.274-6.537.336-.193.738-.29 1.174-.29 2.013 0 4.53 1.578 7.045 3.961-1.174 1.224-2.348 2.64-3.489 4.186-1.945.161-3.79.45-5.535.805-.201-.74-.335-1.449-.47-2.125zM1.879 18c0-1.513 1.912-3.123 5.266-4.315.671-.257 1.41-.483 2.147-.676.537 1.61 1.208 3.317 2.013 5.023-.805 1.707-1.51 3.381-2.013 4.991C4.662 21.735 1.88 19.803 1.88 18zm9.56 15.875c-1.375-.773-1.845-3.156-1.274-6.537.1-.676.268-1.385.47-2.125 1.744.386 3.589.644 5.534.805 1.14 1.546 2.315 2.93 3.49 4.186-2.483 2.35-5 3.96-7.046 3.96-.436 0-.838-.096-1.174-.29zm20.396-6.537c.57 3.381.101 5.764-1.274 6.537-.336.193-.738.29-1.174.29-2.013 0-4.53-1.578-7.045-3.961 1.174-1.224 2.348-2.64 3.489-4.186 1.945-.161 3.79-.45 5.535-.805.201.74.335 1.449.47 2.125zm3.02-5.023c-.671.257-1.41.483-2.147.676-.537-1.61-1.208-3.317-2.013-5.023.805-1.707 1.51-3.381 2.013-4.991 4.63 1.288 7.413 3.22 7.413 5.023 0 1.513-1.945 3.123-5.266 4.315z"/>
    </g>
</svg>
