<svg xmlns="http://www.w3.org/2000/svg" width="48" height="36" viewBox="0 0 48 36">
    <path fill="#CB6699" fill-rule="evenodd" d="M0 15.012c0 .27.08.447.123.62.29 1.124.91 2.09 1.648 2.97 1.05 1.254 2.335 2.264 3.652 3.213 1.143.824 2.308 1.629 3.455 2.446.197.14.383.302.597.474-.184.1-.337.188-.496.269-1.513.77-2.97 1.632-4.312 2.678-.809.63-1.591 1.3-2.143 2.175-.89 1.408-1.204 2.908-.541 4.509.193.468.488.872.905 1.17.135.097.286.193.444.23.404.096.816.158 1.226.234h1.16c1.282-.115 2.449-.556 3.504-1.286 1.648-1.14 2.759-2.67 3.236-4.634.347-1.427.361-2.855-.048-4.276-.037-.131-.085-.26-.135-.388s-.108-.252-.177-.411l2.629-1.516.04.034c-.049.156-.1.313-.143.471-.312 1.144-.52 2.308-.445 3.495.08 1.266.432 2.45 1.17 3.507.597.855 2.02.887 2.655.029.225-.305.443-.624.607-.964.429-.887.826-1.79 1.235-2.688l.072-.164c-.03.425-.064.798-.08 1.171-.024.583.01 1.163.209 1.718.17.475.46.83 1.001.892.371.042.667-.128.94-.344.425-.337.771-.753 1.028-1.226.727-1.339 1.473-2.669 2.132-4.041.712-1.484 1.335-3.012 1.997-4.52l.11-.269c.156.617.265 1.22.466 1.791.233.663.521 1.31.836 1.94.148.296.131.49-.075.739-.862 1.042-1.71 2.098-2.558 3.152-.188.233-.375.47-.531.724-.095.154-.157.343-.184.523-.05.344.162.676.529.755.336.073.693.1 1.035.074 1.184-.087 2.26-.504 3.21-1.21 1.231-.915 1.626-2.163 1.328-3.642-.08-.402-.223-.792-.362-1.179-.062-.174-.066-.297.047-.46.985-1.409 1.826-2.904 2.608-4.434.03-.06.063-.12.117-.185.253 1.322.635 2.597 1.318 3.754-.348.337-.693.642-1.006.979-.688.741-1.284 1.546-1.595 2.528-.134.424-.237.854-.177 1.306.092.702.666 1.158 1.354.998 1.474-.342 2.746-1.038 3.675-2.271.626-.83.683-1.757.42-2.727-.071-.264-.157-.524-.248-.826.363-.113.718-.25 1.084-.333 1.904-.436 3.787-.36 5.621.33 1.07.402 1.936 1.076 2.45 2.135.626 1.296.28 2.525-.938 3.344-.114.076-.244.136-.338.232-.058.059-.092.176-.078.257.008.047.132.106.203.105.4-.003.725-.213 1.037-.43.78-.541 1.35-1.27 1.473-2.23l.024-.072-.03-.625c-.011-.036.01-.071.007-.099-.166-1.397-.91-2.48-1.993-3.33-1.254-.984-2.735-1.389-4.3-1.453-1.277-.052-2.531.138-3.734.577-.343.124-.683.272-1.028.41-.046-.083-.096-.164-.137-.247-.354-.727-.783-1.421-.877-2.255-.068-.592-.15-1.183-.01-1.768.135-.563.31-1.117.476-1.673.086-.286.026-.446-.247-.575-.094-.044-.198-.084-.3-.099-.669-.097-1.329-.041-1.977.148-.23.067-.396.196-.447.45-.029.146-.088.286-.13.43-.169.6-.289 1.21-.563 1.781-.685 1.432-1.468 2.81-2.27 4.178-.086.147-.178.292-.287.471-.282-.59-.582-1.12-.673-1.741-.102-.702-.184-1.404-.01-2.1.13-.52.3-1.03.456-1.544.074-.243.04-.372-.18-.5-.112-.065-.238-.122-.363-.141-.694-.103-1.378-.05-2.047.168-.208.067-.317.202-.38.417-.187.633-.346 1.282-.607 1.884-1.061 2.438-2.152 4.864-3.242 7.29-.228.506-.494.994-.75 1.487-.066.125-.16.235-.241.353-.065-.077-.09-.13-.09-.183.002-.312-.035-.633.024-.934.18-.912.386-1.818.603-2.722.18-.746.389-1.485.588-2.226.067-.248.068-.48-.11-.689-.298-.349-.922-.425-1.292-.156l-.164.092.032-.264c.078-.567.094-1.132-.062-1.69-.193-.697-.689-1.098-1.409-1.075-.335.01-.688.067-.999.19-1.307.514-2.312 1.424-3.168 2.518-.077.1-.18.19-.289.25-1.106.616-2.215 1.223-3.324 1.833l-1.235.678c-.331-.317-.632-.645-.973-.924-1.043-.853-2.102-1.684-3.152-2.527-.93-.747-1.832-1.526-2.522-2.515-.513-.736-.843-1.542-.875-2.452-.04-1.16.288-2.22.876-3.206.754-1.262 1.78-2.275 2.91-3.192 1.195-.97 2.487-1.794 3.826-2.545 1.874-1.052 3.801-1.983 5.868-2.597 2.118-.63 4.268-.991 6.485-.74.872.099 1.718.3 2.496.727.595.327 1.083.755 1.31 1.424.224.659.217 1.326.062 1.995-.315 1.355-1.055 2.472-1.986 3.47-1.527 1.636-3.39 2.75-5.486 3.485-1.21.425-2.455.691-3.734.799-1.043.088-2.064-.005-3.052-.369-.654-.241-1.224-.61-1.682-1.145-.082-.096-.187-.2-.34-.11-.149.088-.175.23-.125.375.084.24.161.49.291.705.328.538.806.93 1.332 1.264 1.01.645 2.14.861 3.31.911 1.778.077 3.511-.189 5.22-.667 2.44-.682 4.563-1.887 6.264-3.789 1.417-1.583 2.43-3.37 2.646-5.528.106-1.053-.007-2.085-.499-3.045-.533-1.041-1.38-1.815-2.395-2.349C25.82.452 24.226 0 22.582 0h-1.648c-1.992 0-3.918.572-5.79 1.255-1.416.517-2.805 1.128-4.154 1.803C8.053 4.53 5.317 6.305 3.07 8.745 1.95 9.96 1.003 11.302.458 12.882c-.16.462-.31.958-.425 1.436m10.643 13.806c-.127 1.71-.9 3.096-2.162 4.218-.71.631-1.525 1.08-2.474 1.238-.344.058-.697.071-1.03-.072-.476-.204-.583-.627-.592-1.078-.014-.72.237-1.37.581-1.989.45-.806 1.11-1.421 1.813-1.995 1.109-.906 2.311-1.672 3.543-2.395l.093-.038c.19.705.281 1.402.228 2.111zm9.618-7.43c-.09.547-.202 1.093-.361 1.622-.55 1.831-1.256 3.606-2.02 5.357-.14.324-.346.62-.524.927-.028.047-.069.088-.108.128-.221.219-.43.207-.543-.08-.13-.332-.21-.688-.278-1.04-.046-.237-.035-.486-.05-.728.015-1.723.54-3.288 1.428-4.746.367-.601.766-1.174 1.376-1.554.187-.117.398-.211.61-.27.325-.093.524.058.47.385zm6.562 8.384l2.359-2.761c.098 1.026-1.64 3.073-2.359 2.761zm7.533-1.858c-.167.096-.349.165-.52.254-.156.08-.207-.001-.212-.136-.003-.092.01-.188.036-.276.318-1.127.904-2.088 1.776-2.87l.061-.032c.415 1.164-.064 2.441-1.141 3.06z"/>
</svg>
