<svg xmlns="http://www.w3.org/2000/svg" width="40" height="36" viewBox="0 0 40 36">
    <g fill="none">
        <path fill="#FDB300" d="M8.728 1.26L20 0.079 31.272 1.26 40 12.859 20 35.921 0 12.859z"/>
        <path fill="#EA6C00" d="M8.102 12.859L20 35.921 0 12.859zM31.898 12.859L20 35.921 40 12.859z"/>
        <path fill="#FDAD00" d="M8.102 12.859L31.898 12.859 20 35.921z"/>
        <path fill="#FDD231" d="M20 .079L8.728 1.26 8.102 12.859zM20 .079L31.272 1.26 31.898 12.859z"/>
        <path fill="#FDAD00" d="M40 12.859L31.272 1.26 31.898 12.859z"/>
        <path fill="#FEEEB7" d="M20 0.079L8.102 12.859 31.898 12.859z"/>
        <path fill="#FDAD00" d="M0 12.859L8.728 1.26 8.102 12.859z"/>
    </g>
</svg>
