<svg xmlns="http://www.w3.org/2000/svg" width="38" height="38" viewBox="0 0 38 38">
    <g fill="none">
        <path fill="#FFF" d="M6 13L37 13 37 35 6 35z"/>
        <path fill="#007ACC" d="M0 19v19h38V0H0v19zm30.622-1.52c.91.211 1.737.687 2.377 1.368.352.367.659.775.912 1.216 0 .049-1.641 1.158-2.642 1.778-.036.025-.182-.133-.343-.374-.371-.64-1.045-1.045-1.785-1.073-1.152-.079-1.893.526-1.887 1.52-.01.248.047.493.164.712.252.526.723.839 2.2 1.477 2.722 1.17 3.886 1.943 4.61 3.04.808 1.216.987 3.18.44 4.633-.608 1.58-2.097 2.654-4.204 3.01-.962.11-1.935.1-2.894-.03-1.471-.243-2.826-.95-3.867-2.016-.35-.386-1.03-1.393-.988-1.465.11-.083.228-.157.35-.222l1.407-.779 1.091-.632.228.337c.385.55.875 1.02 1.441 1.38 1.216.639 2.876.55 3.697-.188.569-.558.657-1.444.21-2.104-.304-.422-.912-.778-2.612-1.52-1.96-.845-2.806-1.368-3.578-2.2-.482-.55-.838-1.199-1.042-1.9-.153-.802-.176-1.623-.067-2.432.404-1.894 1.824-3.217 3.897-3.609.96-.119 1.933-.092 2.885.08v-.007zm-8.92 1.593v1.556H16.77v14.054h-3.5V20.626H8.325v-1.52c-.016-.524-.004-1.048.036-1.571.024-.028 3.04-.028 6.688-.028h6.636l.019 1.566z"/>
    </g>
</svg>
