<svg xmlns="http://www.w3.org/2000/svg" width="37" height="40" viewBox="0 0 37 40">
    <g fill="none">
        <path fill="#8ED6FB" d="M35.86 30.825L19.23 40v-7.146l10.346-5.552 6.284 3.523zM37 29.822V10.651l-6.085 3.428V26.4l6.082 3.419.003.003zM1.14 30.825l16.614 9.169v-7.14l-10.35-5.552-6.264 3.523zM0 29.822V10.651l6.085 3.428V26.4L0 29.822zM.713 9.41L17.77 0v6.908L6.841 12.765l-.088.048L.713 9.41zm35.567 0L19.23 0v6.908l10.929 5.854.088.048 6.04-3.4h-.007z"/>
        <path fill="#1C78C0" d="M17.267 32L7 26.3V15.017l10.267 5.968V32zm1.466 0L29 26.306V15.017l-10.267 5.968V32zM7.697 13.724L18 8l10.303 5.724L18 19.718 7.697 13.724z"/>
    </g>
</svg>
